<?xml version="1.0" encoding="UTF-8"?>
<svg width="900" height="500" viewBox="0 0 900 500" xmlns="http://www.w3.org/2000/svg" font-family="'Segoe UI', Arial, sans-serif">

  <!-- Background -->
  <rect width="900" height="500" fill="#1a1a2e"/>

  <!-- Title -->
  <text x="450" y="36" text-anchor="middle" fill="#e0e0e0" font-size="14" font-weight="bold">Arquitetura do Sono e Consolidação da Memória</text>
  <text x="450" y="58" text-anchor="middle" fill="#a0a0b0" font-size="12">Matthew Walker — UC Berkeley | "Why We Sleep" (2017)</text>

  <!-- Grid area -->
  <rect x="100" y="78" width="760" height="280" fill="#12122a" rx="6"/>

  <!-- Y axis stages -->
  <!-- Stage levels: Acordado=78, REM=134, N1=190, N2=246, N3=302 (bottom of plot at 358) -->

  <!-- Y axis labels -->
  <text x="92" y="84" text-anchor="end" fill="#e0e0e0" font-size="12" font-weight="bold">Acordado</text>
  <text x="92" y="140" text-anchor="end" fill="#a855f7" font-size="12" font-weight="bold">REM</text>
  <text x="92" y="196" text-anchor="end" fill="#7aaeff" font-size="12">N1</text>
  <text x="92" y="252" text-anchor="end" fill="#5580dd" font-size="12">N2</text>
  <text x="92" y="308" text-anchor="end" fill="#2244aa" font-size="12" font-weight="bold">N3</text>
  <text x="92" y="358" text-anchor="end" fill="#1a2288" font-size="12" font-weight="bold">N3</text>

  <!-- Y axis title -->
  <text x="20" y="230" text-anchor="middle" fill="#c0c0d0" font-size="12" transform="rotate(-90,20,230)">Estágio do Sono</text>

  <!-- Horizontal grid lines -->
  <line x1="100" y1="84" x2="860" y2="84" stroke="#2a2a4a" stroke-width="1" stroke-dasharray="4,4"/>
  <line x1="100" y1="140" x2="860" y2="140" stroke="#3a2050" stroke-width="1" stroke-dasharray="4,4"/>
  <line x1="100" y1="196" x2="860" y2="196" stroke="#2a2a4a" stroke-width="1" stroke-dasharray="4,4"/>
  <line x1="100" y1="252" x2="860" y2="252" stroke="#2a2a4a" stroke-width="1" stroke-dasharray="4,4"/>
  <line x1="100" y1="308" x2="860" y2="308" stroke="#2a2a4a" stroke-width="1" stroke-dasharray="4,4"/>
  <line x1="100" y1="358" x2="860" y2="358" stroke="#2a2a4a" stroke-width="1"/>

  <!-- X axis vertical lines (hours) -->
  <line x1="100" y1="78" x2="100" y2="358" stroke="#3a3a5a" stroke-width="2"/>
  <line x1="195" y1="78" x2="195" y2="358" stroke="#2a2a4a" stroke-width="1" stroke-dasharray="3,4"/>
  <line x1="290" y1="78" x2="290" y2="358" stroke="#2a2a4a" stroke-width="1" stroke-dasharray="3,4"/>
  <line x1="385" y1="78" x2="385" y2="358" stroke="#2a2a4a" stroke-width="1" stroke-dasharray="3,4"/>
  <line x1="480" y1="78" x2="480" y2="358" stroke="#2a2a4a" stroke-width="1" stroke-dasharray="3,4"/>
  <line x1="575" y1="78" x2="575" y2="358" stroke="#2a2a4a" stroke-width="1" stroke-dasharray="3,4"/>
  <line x1="670" y1="78" x2="670" y2="358" stroke="#2a2a4a" stroke-width="1" stroke-dasharray="3,4"/>
  <line x1="765" y1="78" x2="765" y2="358" stroke="#2a2a4a" stroke-width="1" stroke-dasharray="3,4"/>
  <line x1="860" y1="78" x2="860" y2="358" stroke="#3a3a5a" stroke-width="2"/>

  <!-- X axis labels (hours) -->
  <text x="100" y="378" text-anchor="middle" fill="#a0a0b0" font-size="12">0h</text>
  <text x="195" y="378" text-anchor="middle" fill="#a0a0b0" font-size="12">1h</text>
  <text x="290" y="378" text-anchor="middle" fill="#a0a0b0" font-size="12">2h</text>
  <text x="385" y="378" text-anchor="middle" fill="#a0a0b0" font-size="12">3h</text>
  <text x="480" y="378" text-anchor="middle" fill="#a0a0b0" font-size="12">4h</text>
  <text x="575" y="378" text-anchor="middle" fill="#a0a0b0" font-size="12">5h</text>
  <text x="670" y="378" text-anchor="middle" fill="#a0a0b0" font-size="12">6h</text>
  <text x="765" y="378" text-anchor="middle" fill="#a0a0b0" font-size="12">7h</text>
  <text x="860" y="378" text-anchor="middle" fill="#a0a0b0" font-size="12">8h</text>

  <!-- X axis title -->
  <text x="480" y="398" text-anchor="middle" fill="#c0c0d0" font-size="12">Horas de Sono</text>

  <!-- ========================================= -->
  <!-- SLEEP CYCLES — 4-5 cycles depicted -->
  <!-- Each cycle ~90 min = ~85px wide -->
  <!-- y positions: Acordado=84, REM=140, N1=196, N2=252, N3=308, deeper N3=342 -->
  <!-- ========================================= -->

  <!-- CYCLE 1 (0h-1.5h = x100-x228) — deep N3 dominant -->
  <!-- Descend: Acordado→N1→N2→N3→deeper N3 -->
  <polyline points="100,84 110,140 125,196 145,252 165,308 190,340 228,340 228,308 228,280 240,252 252,196 265,140 270,108 285,140" fill="none" stroke="#4a6fd8" stroke-width="2.5" stroke-linejoin="round"/>

  <!-- CYCLE 2 (1.5h-3h = x228-x385) — still deep N3 -->
  <polyline points="285,140 295,196 310,252 330,308 360,336 385,336 390,308 395,280 405,252 415,196 425,140 430,110 445,140" fill="none" stroke="#4a6fd8" stroke-width="2.5" stroke-linejoin="round"/>

  <!-- CYCLE 3 (3h-4.5h = x445-x575) — N3 lighter, REM growing -->
  <polyline points="445,140 455,196 468,252 485,308 500,320 520,308 530,280 540,252 548,196 555,140 565,120 575,140" fill="none" stroke="#6a50b8" stroke-width="2.5" stroke-linejoin="round"/>

  <!-- CYCLE 4 (4.5h-6h = x575-x670) — REM dominant -->
  <polyline points="575,140 585,196 598,252 608,280 615,252 620,196 625,140 630,110 640,120 650,140 655,120 665,140" fill="none" stroke="#a855f7" stroke-width="2.5" stroke-linejoin="round"/>

  <!-- CYCLE 5 (6h-8h = x665-x860) — REM very long -->
  <polyline points="665,140 672,196 680,240 685,196 690,140 695,110 710,108 730,110 750,112 770,108 790,110 810,112 830,108 850,112 860,140" fill="none" stroke="#a855f7" stroke-width="2.5" stroke-linejoin="round"/>

  <!-- ========================================= -->
  <!-- HIGHLIGHT ZONES -->
  <!-- ========================================= -->

  <!-- Early cycles N3 highlight (cycles 1-2) -->
  <rect x="100" y="290" width="390" height="68" fill="#2244aa" fill-opacity="0.18" rx="4"/>
  <rect x="100" y="290" width="390" height="2" fill="#2244aa" fill-opacity="0.5"/>

  <!-- Late cycles REM highlight (cycles 4-5) -->
  <rect x="575" y="96" width="285" height="52" fill="#a855f7" fill-opacity="0.15" rx="4"/>
  <rect x="575" y="146" width="285" height="2" fill="#a855f7" fill-opacity="0.5"/>

  <!-- N3 label -->
  <rect x="106" y="300" width="234" height="48" fill="#0a0a2a" rx="6" stroke="#2244aa" stroke-width="1.5"/>
  <text x="223" y="322" text-anchor="middle" fill="#7090dd" font-size="12" font-weight="bold">N3 Dominante</text>
  <text x="223" y="340" text-anchor="middle" fill="#5070bb" font-size="12">Memória Declarativa</text>

  <!-- REM label -->
  <rect x="582" y="98" width="272" height="42" fill="#0a0020" rx="6" stroke="#a855f7" stroke-width="1.5"/>
  <text x="718" y="118" text-anchor="middle" fill="#d090f0" font-size="12" font-weight="bold">REM Dominante</text>
  <text x="718" y="135" text-anchor="middle" fill="#9060c0" font-size="12">Criatividade e Memória Processual</text>

  <!-- ========================================= -->
  <!-- BOTTOM ANNOTATIONS -->
  <!-- ========================================= -->
  <rect x="100" y="410" width="420" height="78" fill="#0a0a2a" rx="8" stroke="#ff6b6b" stroke-width="1.5"/>
  <text x="310" y="432" text-anchor="middle" fill="#ff6b6b" font-size="12" font-weight="bold">Privação de Sono</text>
  <text x="310" y="452" text-anchor="middle" fill="#c05050" font-size="12">-40% na retenção de memória</text>
  <text x="310" y="470" text-anchor="middle" fill="#c05050" font-size="12">com apenas uma noite ruim</text>
  <text x="310" y="484" text-anchor="middle" fill="#904040" font-size="12">(Walker, 2017 — UC Berkeley)</text>

  <rect x="535" y="410" width="325" height="78" fill="#0a1a12" rx="8" stroke="#26de81" stroke-width="1.5"/>
  <text x="697" y="432" text-anchor="middle" fill="#26de81" font-size="12" font-weight="bold">Sono como Aprendizado</text>
  <text x="697" y="452" text-anchor="middle" fill="#50a870" font-size="12">Hipocampo → Neocórtex</text>
  <text x="697" y="470" text-anchor="middle" fill="#50a870" font-size="12">Consolidação nas horas de sono</text>
  <text x="697" y="484" text-anchor="middle" fill="#408060" font-size="12">Nunca estude sem dormir depois</text>

</svg>
