<svg viewBox="0 0 900 480" xmlns="http://www.w3.org/2000/svg" font-family="Segoe UI, Arial, sans-serif">
  <!-- Background -->
  <rect width="900" height="480" fill="#1a1a2e"/>

  <!-- Title -->
  <text x="450" y="34" text-anchor="middle" font-size="22" font-weight="bold" fill="#e0e0e0">A Corrente da Consistência — Jerry Seinfeld</text>
  <text x="450" y="56" text-anchor="middle" font-size="16" fill="#a0a0b0">Consistência supera intensidade no aprendizado de longo prazo</text>

  <!-- Calendar header row -->
  <text x="80" y="88" font-size="14" fill="#a0a0b0">Dia:</text>
  <!-- Day numbers: 1-30, 6 per row, starting at x=115 -->

  <!-- Row 1: Days 1-5 -->
  <g id="row1">
    <!-- Day 1 -->
    <rect x="115" y="100" width="55" height="52" rx="6" fill="#26de81" opacity="0.22" stroke="#26de81" stroke-width="1.5"/>
    <text x="142" y="120" text-anchor="middle" font-size="12" fill="#a0a0b0">1</text>
    <text x="142" y="142" text-anchor="middle" font-size="22" fill="#26de81">✓</text>
    <!-- Day 2 -->
    <rect x="178" y="100" width="55" height="52" rx="6" fill="#26de81" opacity="0.22" stroke="#26de81" stroke-width="1.5"/>
    <text x="205" y="120" text-anchor="middle" font-size="12" fill="#a0a0b0">2</text>
    <text x="205" y="142" text-anchor="middle" font-size="22" fill="#26de81">✓</text>
    <!-- Day 3 -->
    <rect x="241" y="100" width="55" height="52" rx="6" fill="#26de81" opacity="0.22" stroke="#26de81" stroke-width="1.5"/>
    <text x="268" y="120" text-anchor="middle" font-size="12" fill="#a0a0b0">3</text>
    <text x="268" y="142" text-anchor="middle" font-size="22" fill="#26de81">✓</text>
    <!-- Day 4 -->
    <rect x="304" y="100" width="55" height="52" rx="6" fill="#26de81" opacity="0.22" stroke="#26de81" stroke-width="1.5"/>
    <text x="331" y="120" text-anchor="middle" font-size="12" fill="#a0a0b0">4</text>
    <text x="331" y="142" text-anchor="middle" font-size="22" fill="#26de81">✓</text>
    <!-- Day 5 -->
    <rect x="367" y="100" width="55" height="52" rx="6" fill="#26de81" opacity="0.22" stroke="#26de81" stroke-width="1.5"/>
    <text x="394" y="120" text-anchor="middle" font-size="12" fill="#a0a0b0">5</text>
    <text x="394" y="142" text-anchor="middle" font-size="22" fill="#26de81">✓</text>
    <!-- Day 6 -->
    <rect x="430" y="100" width="55" height="52" rx="6" fill="#26de81" opacity="0.22" stroke="#26de81" stroke-width="1.5"/>
    <text x="457" y="120" text-anchor="middle" font-size="12" fill="#a0a0b0">6</text>
    <text x="457" y="142" text-anchor="middle" font-size="22" fill="#26de81">✓</text>
  </g>

  <!-- Row 2: Days 7-12 -->
  <g id="row2">
    <rect x="115" y="162" width="55" height="52" rx="6" fill="#26de81" opacity="0.22" stroke="#26de81" stroke-width="1.5"/>
    <text x="142" y="182" text-anchor="middle" font-size="12" fill="#a0a0b0">7</text>
    <text x="142" y="204" text-anchor="middle" font-size="22" fill="#26de81">✓</text>
    <rect x="178" y="162" width="55" height="52" rx="6" fill="#26de81" opacity="0.22" stroke="#26de81" stroke-width="1.5"/>
    <text x="205" y="182" text-anchor="middle" font-size="12" fill="#a0a0b0">8</text>
    <text x="205" y="204" text-anchor="middle" font-size="22" fill="#26de81">✓</text>
    <rect x="241" y="162" width="55" height="52" rx="6" fill="#26de81" opacity="0.22" stroke="#26de81" stroke-width="1.5"/>
    <text x="268" y="182" text-anchor="middle" font-size="12" fill="#a0a0b0">9</text>
    <text x="268" y="204" text-anchor="middle" font-size="22" fill="#26de81">✓</text>
    <rect x="304" y="162" width="55" height="52" rx="6" fill="#26de81" opacity="0.22" stroke="#26de81" stroke-width="1.5"/>
    <text x="331" y="182" text-anchor="middle" font-size="12" fill="#a0a0b0">10</text>
    <text x="331" y="204" text-anchor="middle" font-size="22" fill="#26de81">✓</text>
    <rect x="367" y="162" width="55" height="52" rx="6" fill="#26de81" opacity="0.22" stroke="#26de81" stroke-width="1.5"/>
    <text x="394" y="182" text-anchor="middle" font-size="12" fill="#a0a0b0">11</text>
    <text x="394" y="204" text-anchor="middle" font-size="22" fill="#26de81">✓</text>
    <rect x="430" y="162" width="55" height="52" rx="6" fill="#26de81" opacity="0.22" stroke="#26de81" stroke-width="1.5"/>
    <text x="457" y="182" text-anchor="middle" font-size="12" fill="#a0a0b0">12</text>
    <text x="457" y="204" text-anchor="middle" font-size="22" fill="#26de81">✓</text>
  </g>

  <!-- Row 3: Days 13-18 -->
  <g id="row3">
    <rect x="115" y="224" width="55" height="52" rx="6" fill="#26de81" opacity="0.22" stroke="#26de81" stroke-width="1.5"/>
    <text x="142" y="244" text-anchor="middle" font-size="12" fill="#a0a0b0">13</text>
    <text x="142" y="266" text-anchor="middle" font-size="22" fill="#26de81">✓</text>
    <rect x="178" y="224" width="55" height="52" rx="6" fill="#26de81" opacity="0.22" stroke="#26de81" stroke-width="1.5"/>
    <text x="205" y="244" text-anchor="middle" font-size="12" fill="#a0a0b0">14</text>
    <text x="205" y="266" text-anchor="middle" font-size="22" fill="#26de81">✓</text>
    <rect x="241" y="224" width="55" height="52" rx="6" fill="#26de81" opacity="0.22" stroke="#26de81" stroke-width="1.5"/>
    <text x="268" y="244" text-anchor="middle" font-size="12" fill="#a0a0b0">15</text>
    <text x="268" y="266" text-anchor="middle" font-size="22" fill="#26de81">✓</text>
    <rect x="304" y="224" width="55" height="52" rx="6" fill="#26de81" opacity="0.22" stroke="#26de81" stroke-width="1.5"/>
    <text x="331" y="244" text-anchor="middle" font-size="12" fill="#a0a0b0">16</text>
    <text x="331" y="266" text-anchor="middle" font-size="22" fill="#26de81">✓</text>
    <rect x="367" y="224" width="55" height="52" rx="6" fill="#26de81" opacity="0.22" stroke="#26de81" stroke-width="1.5"/>
    <text x="394" y="244" text-anchor="middle" font-size="12" fill="#a0a0b0">17</text>
    <text x="394" y="266" text-anchor="middle" font-size="22" fill="#26de81">✓</text>
    <rect x="430" y="224" width="55" height="52" rx="6" fill="#26de81" opacity="0.22" stroke="#26de81" stroke-width="1.5"/>
    <text x="457" y="244" text-anchor="middle" font-size="12" fill="#a0a0b0">18</text>
    <text x="457" y="266" text-anchor="middle" font-size="22" fill="#26de81">✓</text>
  </g>

  <!-- Row 4: Days 19-24 (day 23 is missed) -->
  <g id="row4">
    <rect x="115" y="286" width="55" height="52" rx="6" fill="#26de81" opacity="0.22" stroke="#26de81" stroke-width="1.5"/>
    <text x="142" y="306" text-anchor="middle" font-size="12" fill="#a0a0b0">19</text>
    <text x="142" y="328" text-anchor="middle" font-size="22" fill="#26de81">✓</text>
    <rect x="178" y="286" width="55" height="52" rx="6" fill="#26de81" opacity="0.22" stroke="#26de81" stroke-width="1.5"/>
    <text x="205" y="306" text-anchor="middle" font-size="12" fill="#a0a0b0">20</text>
    <text x="205" y="328" text-anchor="middle" font-size="22" fill="#26de81">✓</text>
    <rect x="241" y="286" width="55" height="52" rx="6" fill="#26de81" opacity="0.22" stroke="#26de81" stroke-width="1.5"/>
    <text x="268" y="306" text-anchor="middle" font-size="12" fill="#a0a0b0">21</text>
    <text x="268" y="328" text-anchor="middle" font-size="22" fill="#26de81">✓</text>
    <rect x="304" y="286" width="55" height="52" rx="6" fill="#26de81" opacity="0.22" stroke="#26de81" stroke-width="1.5"/>
    <text x="331" y="306" text-anchor="middle" font-size="12" fill="#a0a0b0">22</text>
    <text x="331" y="328" text-anchor="middle" font-size="22" fill="#26de81">✓</text>
    <!-- Day 23: missed - red X -->
    <rect x="367" y="286" width="55" height="52" rx="6" fill="#ff6b6b" opacity="0.22" stroke="#ff6b6b" stroke-width="2"/>
    <text x="394" y="306" text-anchor="middle" font-size="12" fill="#ff6b6b">23</text>
    <text x="394" y="328" text-anchor="middle" font-size="22" fill="#ff6b6b">✗</text>
    <!-- Days 24-30: empty -->
    <rect x="430" y="286" width="55" height="52" rx="6" fill="#12122a" stroke="#a0a0b0" stroke-width="1" stroke-dasharray="4,3"/>
    <text x="457" y="306" text-anchor="middle" font-size="12" fill="#a0a0b0">24</text>
  </g>

  <!-- Row 5: Days 25-30 -->
  <g id="row5">
    <rect x="115" y="348" width="55" height="52" rx="6" fill="#12122a" stroke="#a0a0b0" stroke-width="1" stroke-dasharray="4,3"/>
    <text x="142" y="368" text-anchor="middle" font-size="12" fill="#a0a0b0">25</text>
    <rect x="178" y="348" width="55" height="52" rx="6" fill="#12122a" stroke="#a0a0b0" stroke-width="1" stroke-dasharray="4,3"/>
    <text x="205" y="368" text-anchor="middle" font-size="12" fill="#a0a0b0">26</text>
    <rect x="241" y="348" width="55" height="52" rx="6" fill="#12122a" stroke="#a0a0b0" stroke-width="1" stroke-dasharray="4,3"/>
    <text x="268" y="368" text-anchor="middle" font-size="12" fill="#a0a0b0">27</text>
    <rect x="304" y="348" width="55" height="52" rx="6" fill="#12122a" stroke="#a0a0b0" stroke-width="1" stroke-dasharray="4,3"/>
    <text x="331" y="368" text-anchor="middle" font-size="12" fill="#a0a0b0">28</text>
    <rect x="367" y="348" width="55" height="52" rx="6" fill="#12122a" stroke="#a0a0b0" stroke-width="1" stroke-dasharray="4,3"/>
    <text x="394" y="368" text-anchor="middle" font-size="12" fill="#a0a0b0">29</text>
    <rect x="430" y="348" width="55" height="52" rx="6" fill="#12122a" stroke="#a0a0b0" stroke-width="1" stroke-dasharray="4,3"/>
    <text x="457" y="368" text-anchor="middle" font-size="12" fill="#a0a0b0">30</text>
  </g>

  <!-- Annotation: chain -->
  <line x1="283" y1="100" x2="530" y2="78" stroke="#26de81" stroke-width="1.5" stroke-dasharray="4,3"/>
  <text x="538" y="74" font-size="14" font-weight="bold" fill="#26de81">A corrente de consistência</text>

  <!-- Annotation: missed day -->
  <line x1="394" y1="338" x2="530" y2="355" stroke="#ff6b6b" stroke-width="1.5" stroke-dasharray="4,3"/>
  <text x="538" y="350" font-size="14" font-weight="bold" fill="#ff6b6b">Nao quebre a corrente!</text>
  <text x="538" y="370" font-size="13" fill="#a0a0b0">Regra: nunca dois dias</text>
  <text x="538" y="387" font-size="13" fill="#a0a0b0">sem estudar seguidos</text>

  <!-- Comparison formula box -->
  <rect x="502" y="410" width="368" height="58" rx="8" fill="#12122a" stroke="#00d4ff" stroke-width="1.5"/>
  <text x="686" y="434" text-anchor="middle" font-size="15" font-weight="bold" fill="#00d4ff">20 min/dia × 365 dias = 122 horas/ano</text>
  <text x="686" y="456" text-anchor="middle" font-size="14" fill="#e0e0e0">Consistencia diaria supera o "maratao" semanal</text>

  <!-- Green chain annotation at top left -->
  <text x="80" y="410" font-size="16" fill="#26de81">✓ = estudou</text>
  <text x="80" y="432" font-size="16" fill="#ff6b6b">✗ = nao estudou</text>
  <text x="80" y="454" font-size="14" fill="#a0a0b0">□ = dias futuros</text>
</svg>
