<svg xmlns="http://www.w3.org/2000/svg" viewBox="0 0 800 800" width="800" height="800">
  <defs>
    <radialGradient id="bgGrad" cx="50%" cy="50%" r="50%">
      <stop offset="0%" style="stop-color:#0d1117;stop-opacity:1"/>
      <stop offset="100%" style="stop-color:#0a0e15;stop-opacity:1"/>
    </radialGradient>
    <radialGradient id="coreGrad" cx="50%" cy="50%" r="50%">
      <stop offset="0%" style="stop-color:#00d4ff;stop-opacity:0.3"/>
      <stop offset="100%" style="stop-color:#00d4ff;stop-opacity:0"/>
    </radialGradient>
    <!-- Spiral gradient colors -->
    <linearGradient id="spiral1" x1="0%" y1="0%" x2="100%" y2="100%">
      <stop offset="0%" style="stop-color:#1a3a4a;stop-opacity:1"/>
      <stop offset="100%" style="stop-color:#00d4ff;stop-opacity:0.8"/>
    </linearGradient>
  </defs>

  <!-- Background -->
  <rect width="800" height="800" fill="url(#bgGrad)"/>

  <!-- Title -->
  <text x="400" y="42" font-family="'Courier New', monospace" font-size="22" font-weight="bold" fill="#00d4ff" text-anchor="middle">ESPIRAL DO LIFE LONG LEARNING</text>
  <text x="400" y="64" font-family="'Courier New', monospace" font-size="17" fill="#8b949e" text-anchor="middle">A jornada de competência crescente ao longo da vida</text>

  <!-- Central core glow -->
  <circle cx="400" cy="430" r="80" fill="url(#coreGrad)"/>
  <circle cx="400" cy="430" r="52" fill="#0d1117" stroke="#00d4ff" stroke-width="2"/>
  <text x="400" y="422" font-family="'Courier New', monospace" font-size="15" fill="#00d4ff" text-anchor="middle" font-weight="bold">IDENTIDADE</text>
  <text x="400" y="436" font-family="'Courier New', monospace" font-size="15" fill="#00d4ff" text-anchor="middle" font-weight="bold">APRENDIZ</text>
  <text x="400" y="450" font-family="'Courier New', monospace" font-size="15" fill="#00d4ff" text-anchor="middle" font-weight="bold">PERMANENTE</text>

  <!-- Spiral rings — drawn as arcs with increasing radius -->
  <!-- Ring 1 — innermost — Aprender (smallest loop) -->
  <path d="M 400 370
           A 60 60 0 0 1 460 430
           A 60 60 0 0 1 400 490
           A 60 60 0 0 1 340 430
           A 60 60 0 0 0 400 370"
        fill="none" stroke="#1a4a5a" stroke-width="18" stroke-linecap="round" opacity="0.5"/>

  <!-- Ring 2 -->
  <path d="M 400 300
           A 130 130 0 0 1 530 430
           A 130 130 0 0 1 400 560
           A 130 130 0 0 1 270 430
           A 130 130 0 0 0 400 300"
        fill="none" stroke="#1a5a70" stroke-width="20" stroke-linecap="round" opacity="0.6"/>

  <!-- Ring 3 -->
  <path d="M 400 220
           A 210 210 0 0 1 610 430
           A 210 210 0 0 1 400 640
           A 210 210 0 0 1 190 430
           A 210 210 0 0 0 400 220"
        fill="none" stroke="#00607a" stroke-width="22" stroke-linecap="round" opacity="0.7"/>

  <!-- Ring 4 — outermost -->
  <path d="M 400 130
           A 300 300 0 0 1 700 430
           A 300 300 0 0 1 400 730
           A 300 300 0 0 1 100 430
           A 300 300 0 0 0 400 130"
        fill="none" stroke="#00d4ff" stroke-width="24" stroke-linecap="round" opacity="0.5"/>

  <!-- Loop labels on the spiral — positioned at key points -->

  <!-- Loop 1 inner — top -->
  <rect x="320" y="88" width="160" height="34" rx="6" fill="#0d1117" stroke="#00d4ff" stroke-width="1.5"/>
  <text x="400" y="101" font-family="'Courier New', monospace" font-size="15" fill="#00d4ff" text-anchor="middle" font-weight="bold">VOLTA 1: INICIANTE</text>
  <text x="400" y="116" font-family="'Courier New', monospace" font-size="14" fill="#8b949e" text-anchor="middle">Fundamentos + primeiros conceitos</text>
  <line x1="400" y1="122" x2="400" y2="145" stroke="#00d4ff" stroke-width="1" stroke-dasharray="4,3"/>

  <!-- Loop 2 right -->
  <rect x="628" y="350" width="155" height="46" rx="6" fill="#0d1117" stroke="#3fb950" stroke-width="1.5"/>
  <text x="705" y="365" font-family="'Courier New', monospace" font-size="15" fill="#3fb950" text-anchor="middle" font-weight="bold">VOLTA 2: COMPETENTE</text>
  <text x="705" y="379" font-family="'Courier New', monospace" font-size="14" fill="#8b949e" text-anchor="middle">Aplica com orientação</text>
  <text x="705" y="392" font-family="'Courier New', monospace" font-size="14" fill="#8b949e" text-anchor="middle">Primeiros projetos reais</text>
  <line x1="628" y1="373" x2="615" y2="430" stroke="#3fb950" stroke-width="1" stroke-dasharray="4,3"/>

  <!-- Loop 3 bottom -->
  <rect x="310" y="668" width="180" height="46" rx="6" fill="#0d1117" stroke="#d29922" stroke-width="1.5"/>
  <text x="400" y="683" font-family="'Courier New', monospace" font-size="15" fill="#d29922" text-anchor="middle" font-weight="bold">VOLTA 3: PROFICIENTE</text>
  <text x="400" y="697" font-family="'Courier New', monospace" font-size="14" fill="#8b949e" text-anchor="middle">Resolve problemas complexos</text>
  <text x="400" y="710" font-family="'Courier New', monospace" font-size="14" fill="#8b949e" text-anchor="middle">Ensina outros</text>
  <line x1="400" y1="668" x2="400" y2="640" stroke="#d29922" stroke-width="1" stroke-dasharray="4,3"/>

  <!-- Loop 4 left -->
  <rect x="18" y="350" width="155" height="46" rx="6" fill="#0d1117" stroke="#bc8cff" stroke-width="1.5"/>
  <text x="96" y="365" font-family="'Courier New', monospace" font-size="15" fill="#bc8cff" text-anchor="middle" font-weight="bold">VOLTA 4: AVANÇADO</text>
  <text x="96" y="379" font-family="'Courier New', monospace" font-size="14" fill="#8b949e" text-anchor="middle">Inovação + mentoria</text>
  <text x="96" y="392" font-family="'Courier New', monospace" font-size="14" fill="#8b949e" text-anchor="middle">Contribui com a área</text>
  <line x1="173" y1="373" x2="185" y2="430" stroke="#bc8cff" stroke-width="1" stroke-dasharray="4,3"/>

  <!-- Loop cycle labels on the path itself -->
  <!-- APRENDER label -->
  <rect x="365" y="220" width="70" height="22" rx="4" fill="#00d4ff" opacity="0.9"/>
  <text x="400" y="235" font-family="'Courier New', monospace" font-size="14" fill="#0d1117" text-anchor="middle" font-weight="bold">APRENDER</text>

  <!-- APLICAR label -->
  <rect x="556" y="395" width="68" height="22" rx="4" fill="#3fb950" opacity="0.9"/>
  <text x="590" y="410" font-family="'Courier New', monospace" font-size="14" fill="#0d1117" text-anchor="middle" font-weight="bold">APLICAR</text>

  <!-- REFLETIR label -->
  <rect x="368" y="575" width="64" height="22" rx="4" fill="#d29922" opacity="0.9"/>
  <text x="400" y="590" font-family="'Courier New', monospace" font-size="14" fill="#0d1117" text-anchor="middle" font-weight="bold">REFLETIR</text>

  <!-- ADAPTAR label -->
  <rect x="178" y="395" width="66" height="22" rx="4" fill="#bc8cff" opacity="0.9"/>
  <text x="211" y="410" font-family="'Courier New', monospace" font-size="14" fill="#0d1117" text-anchor="middle" font-weight="bold">ADAPTAR</text>

  <!-- REAPRENDER arrow up -->
  <path d="M 375 165 Q 350 140 375 115" fill="none" stroke="#00d4ff" stroke-width="2" marker-end="url(#arrow)"/>
  <defs>
    <marker id="arrow" markerWidth="8" markerHeight="8" refX="6" refY="3" orient="auto">
      <path d="M0,0 L0,6 L8,3 z" fill="#00d4ff"/>
    </marker>
  </defs>

  <!-- Upward arrow indicating growth -->
  <text x="400" y="762" font-family="'Courier New', monospace" font-size="16" fill="#8b949e" text-anchor="middle">Cada volta da espiral = nível de competência mais elevado</text>
  <text x="400" y="778" font-family="'Courier New', monospace" font-size="16" fill="#8b949e" text-anchor="middle">O loop: Aprender → Aplicar → Refletir → Adaptar → Aprender...</text>
  <text x="400" y="794" font-family="'Courier New', monospace" font-size="15" fill="#3b4450" text-anchor="middle">Curso "Aprender a Aprender" — Educa com Talento | Módulo 9 — Life Long Learning</text>
</svg>
