<svg xmlns="http://www.w3.org/2000/svg" viewBox="0 0 900 500">
  <rect width="900" height="500" fill="#1a1a2e"/>
  <text x="450" y="40" font-family="Arial" font-size="24" font-weight="bold" fill="white" text-anchor="middle">TÉCNICA POMODORO</text>
  <text x="450" y="65" font-family="Arial" font-size="12" fill="#888" text-anchor="middle">Ciclos de foco intenso + pausas restauradoras</text>

  <!-- Timer visual -->
  <circle cx="200" cy="200" r="100" fill="none" stroke="#333" stroke-width="15"/>
  <circle cx="200" cy="200" r="100" fill="none" stroke="#ef4444" stroke-width="15" stroke-dasharray="471" stroke-dashoffset="118" transform="rotate(-90 200 200)"/>
  <text x="200" y="195" font-family="Arial" font-size="32" fill="#ef4444" text-anchor="middle" font-weight="bold">25</text>
  <text x="200" y="220" font-family="Arial" font-size="12" fill="#888" text-anchor="middle">minutos</text>
  <text x="200" y="320" font-family="Arial" font-size="10" fill="#ccc" text-anchor="middle">FOCO TOTAL</text>

  <!-- Flow -->
  <g transform="translate(350, 130)">
    <rect x="0" y="0" width="500" height="180" rx="10" fill="#1e1b4b"/>
    <text x="250" y="30" font-family="Arial" font-size="14" fill="white" text-anchor="middle" font-weight="bold">O CICLO</text>

    <rect x="20" y="50" width="80" height="50" rx="8" fill="#ef4444"/>
    <text x="60" y="80" font-family="Arial" font-size="9" fill="white" text-anchor="middle" font-weight="bold">25 min</text>
    <text x="60" y="92" font-family="Arial" font-size="7" fill="white" text-anchor="middle">FOCO</text>

    <text x="115" y="80" font-family="Arial" font-size="16" fill="#444">→</text>

    <rect x="130" y="50" width="60" height="50" rx="8" fill="#22c55e"/>
    <text x="160" y="80" font-family="Arial" font-size="9" fill="white" text-anchor="middle" font-weight="bold">5 min</text>
    <text x="160" y="92" font-family="Arial" font-size="7" fill="white" text-anchor="middle">PAUSA</text>

    <text x="205" y="80" font-family="Arial" font-size="16" fill="#444">→</text>

    <rect x="220" y="50" width="80" height="50" rx="8" fill="#ef4444"/>
    <text x="260" y="80" font-family="Arial" font-size="9" fill="white" text-anchor="middle" font-weight="bold">25 min</text>

    <text x="315" y="80" font-family="Arial" font-size="16" fill="#444">→</text>

    <rect x="330" y="50" width="60" height="50" rx="8" fill="#22c55e"/>
    <text x="360" y="80" font-family="Arial" font-size="9" fill="white" text-anchor="middle" font-weight="bold">5 min</text>

    <text x="405" y="80" font-family="Arial" font-size="16" fill="#444">→</text>

    <text x="450" y="75" font-family="Arial" font-size="9" fill="#888" text-anchor="middle">... x4</text>

    <rect x="180" y="115" width="140" height="50" rx="8" fill="#3b82f6"/>
    <text x="250" y="140" font-family="Arial" font-size="10" fill="white" text-anchor="middle" font-weight="bold">15-30 min</text>
    <text x="250" y="155" font-family="Arial" font-size="8" fill="white" text-anchor="middle">PAUSA LONGA</text>
    <text x="250" y="105" font-family="Arial" font-size="8" fill="#888" text-anchor="middle">Após 4 pomodoros:</text>
  </g>

  <!-- Variations -->
  <text x="450" y="340" font-family="Arial" font-size="14" fill="white" text-anchor="middle" font-weight="bold">ADAPTAÇÕES</text>

  <g transform="translate(100, 360)">
    <rect x="0" y="0" width="200" height="60" rx="8" fill="#2a2a4a"/>
    <text x="100" y="25" font-family="Arial" font-size="10" fill="#3b82f6" text-anchor="middle" font-weight="bold">⚡ RELÂMPAGO</text>
    <text x="100" y="45" font-family="Arial" font-size="9" fill="#888" text-anchor="middle">15/3 - Para iniciantes</text>
  </g>

  <g transform="translate(350, 360)">
    <rect x="0" y="0" width="200" height="60" rx="8" fill="#2a2a4a"/>
    <text x="100" y="25" font-family="Arial" font-size="10" fill="#22c55e" text-anchor="middle" font-weight="bold">🍅 CLÁSSICO</text>
    <text x="100" y="45" font-family="Arial" font-size="9" fill="#888" text-anchor="middle">25/5 - Padrão</text>
  </g>

  <g transform="translate(600, 360)">
    <rect x="0" y="0" width="200" height="60" rx="8" fill="#2a2a4a"/>
    <text x="100" y="25" font-family="Arial" font-size="10" fill="#f59e0b" text-anchor="middle" font-weight="bold">🔥 ESTENDIDO</text>
    <text x="100" y="45" font-family="Arial" font-size="9" fill="#888" text-anchor="middle">45-90/15 - Deep work</text>
  </g>

  <text x="450" y="450" font-family="Arial" font-size="10" fill="#888" text-anchor="middle">Experimente e encontre SEU ritmo ideal</text>

  <text x="880" y="490" font-family="Arial" font-size="9" fill="#444" text-anchor="end">Aula 15</text>
</svg>
