<svg xmlns="http://www.w3.org/2000/svg" viewBox="0 0 900 500">
  <rect width="900" height="500" fill="#1a1a2e"/>
  <text x="450" y="40" font-family="Arial" font-size="24" font-weight="bold" fill="white" text-anchor="middle">INTELIGÊNCIA EMOCIONAL NOS ESTUDOS</text>
  <text x="450" y="65" font-family="Arial" font-size="12" fill="#888" text-anchor="middle">Emoções são filtros - cuide delas para estudar melhor</text>
  
  <g transform="translate(50, 100)">
    <rect x="0" y="0" width="250" height="150" rx="10" fill="#2a2a4a" stroke="#ef4444" stroke-width="2"/>
    <text x="125" y="30" font-family="Arial" font-size="12" fill="#ef4444" text-anchor="middle" font-weight="bold">😰 ANSIEDADE</text>
    <text x="125" y="55" font-family="Arial" font-size="9" fill="#ccc" text-anchor="middle">Bloqueia processamento</text>
    <text x="20" y="85" font-family="Arial" font-size="9" fill="#888">Técnica: Respiração 4-7-8</text>
    <text x="20" y="105" font-family="Arial" font-size="8" fill="#666">Inspire 4s, segure 7s, expire 8s</text>
    <text x="20" y="130" font-family="Arial" font-size="9" fill="#888">Técnica: Grounding (5-4-3-2-1)</text>
  </g>

  <g transform="translate(325, 100)">
    <rect x="0" y="0" width="250" height="150" rx="10" fill="#2a2a4a" stroke="#f59e0b" stroke-width="2"/>
    <text x="125" y="30" font-family="Arial" font-size="12" fill="#f59e0b" text-anchor="middle" font-weight="bold">😤 FRUSTRAÇÃO</text>
    <text x="125" y="55" font-family="Arial" font-size="9" fill="#ccc" text-anchor="middle">Drena energia e motivação</text>
    <text x="20" y="85" font-family="Arial" font-size="9" fill="#888">Técnica: Reframing</text>
    <text x="20" y="105" font-family="Arial" font-size="8" fill="#666">"Isso é difícil" → "É um desafio"</text>
    <text x="20" y="130" font-family="Arial" font-size="9" fill="#888">Técnica: Pausas estratégicas</text>
  </g>

  <g transform="translate(600, 100)">
    <rect x="0" y="0" width="250" height="150" rx="10" fill="#2a2a4a" stroke="#22c55e" stroke-width="2"/>
    <text x="125" y="30" font-family="Arial" font-size="12" fill="#22c55e" text-anchor="middle" font-weight="bold">😊 ESTADO IDEAL</text>
    <text x="125" y="55" font-family="Arial" font-size="9" fill="#ccc" text-anchor="middle">Calmo, curioso, confiante</text>
    <text x="20" y="85" font-family="Arial" font-size="9" fill="#888">Como alcançar:</text>
    <text x="20" y="105" font-family="Arial" font-size="8" fill="#666">• Sono adequado</text>
    <text x="20" y="120" font-family="Arial" font-size="8" fill="#666">• Exercício físico</text>
    <text x="20" y="135" font-family="Arial" font-size="8" fill="#666">• Alimentação equilibrada</text>
  </g>

  <rect x="150" y="280" width="600" height="100" rx="10" fill="#1e1b4b"/>
  <text x="450" y="310" font-family="Arial" font-size="14" fill="white" text-anchor="middle" font-weight="bold">TERMÔMETRO EMOCIONAL</text>
  <rect x="200" y="330" width="500" height="30" rx="5" fill="#333"/>
  <rect x="200" y="330" width="100" height="30" rx="5" fill="#ef4444"/>
  <rect x="300" y="330" width="100" height="30" fill="#f59e0b"/>
  <rect x="400" y="330" width="100" height="30" fill="#fbbf24"/>
  <rect x="500" y="330" width="100" height="30" fill="#84cc16"/>
  <rect x="600" y="330" width="100" height="30" rx="5" fill="#22c55e"/>
  <text x="250" y="375" font-family="Arial" font-size="8" fill="#888" text-anchor="middle">Não estudar</text>
  <text x="450" y="375" font-family="Arial" font-size="8" fill="#888" text-anchor="middle">Regular</text>
  <text x="650" y="375" font-family="Arial" font-size="8" fill="#888" text-anchor="middle">Ideal</text>

  <text x="450" y="420" font-family="Arial" font-size="11" fill="#ccc" text-anchor="middle">Antes de estudar, faça um check-in: "Como estou me sentindo?"</text>
  <text x="450" y="440" font-family="Arial" font-size="10" fill="#888" text-anchor="middle">Se estiver no vermelho/laranja, cuide das emoções primeiro</text>

  <text x="880" y="490" font-family="Arial" font-size="9" fill="#444" text-anchor="end">Aula 13</text>
</svg>
