<svg xmlns="http://www.w3.org/2000/svg" viewBox="0 0 800 500">
  <defs>
    <linearGradient id="headerGrad" x1="0%" y1="0%" x2="100%" y2="100%">
      <stop offset="0%" style="stop-color:#667eea"/>
      <stop offset="100%" style="stop-color:#764ba2"/>
    </linearGradient>
  </defs>

  <rect width="800" height="500" fill="#faf5ff"/>

  <rect x="0" y="0" width="800" height="80" fill="url(#headerGrad)"/>
  <text x="400" y="35" font-family="Arial, sans-serif" font-size="22" font-weight="bold" fill="white" text-anchor="middle">TEORIA E PRÁTICA</text>
  <text x="400" y="60" font-family="Arial, sans-serif" font-size="14" fill="white" text-anchor="middle" opacity="0.9">O diálogo essencial na jornada do educador</text>

  <!-- Ciclo Teoria-Prática-Reflexão -->
  <g transform="translate(400, 280)">
    <!-- Setas do ciclo -->
    <path d="M -80 -80 A 100 100 0 0 1 80 -80" stroke="#667eea" stroke-width="3" fill="none" marker-end="url(#arrow)"/>
    <path d="M 100 0 A 100 100 0 0 1 0 100" stroke="#4facfe" stroke-width="3" fill="none"/>
    <path d="M -80 80 A 100 100 0 0 1 -100 0" stroke="#43e97b" stroke-width="3" fill="none"/>

    <!-- Teoria -->
    <g transform="translate(0, -120)">
      <circle cx="0" cy="0" r="50" fill="white" stroke="#667eea" stroke-width="3"/>
      <text x="0" y="-10" font-family="Arial, sans-serif" font-size="24" text-anchor="middle">📚</text>
      <text x="0" y="15" font-family="Arial, sans-serif" font-size="11" font-weight="bold" fill="#667eea" text-anchor="middle">TEORIA</text>
    </g>

    <!-- Prática -->
    <g transform="translate(100, 60)">
      <circle cx="0" cy="0" r="50" fill="white" stroke="#4facfe" stroke-width="3"/>
      <text x="0" y="-10" font-family="Arial, sans-serif" font-size="24" text-anchor="middle">🛠️</text>
      <text x="0" y="15" font-family="Arial, sans-serif" font-size="11" font-weight="bold" fill="#4facfe" text-anchor="middle">PRÁTICA</text>
    </g>

    <!-- Reflexão -->
    <g transform="translate(-100, 60)">
      <circle cx="0" cy="0" r="50" fill="white" stroke="#43e97b" stroke-width="3"/>
      <text x="0" y="-10" font-family="Arial, sans-serif" font-size="24" text-anchor="middle">💭</text>
      <text x="0" y="15" font-family="Arial, sans-serif" font-size="11" font-weight="bold" fill="#43e97b" text-anchor="middle">REFLEXÃO</text>
    </g>

    <!-- Centro -->
    <circle cx="0" cy="0" r="30" fill="url(#headerGrad)"/>
    <text x="0" y="5" font-family="Arial, sans-serif" font-size="9" font-weight="bold" fill="white" text-anchor="middle">EDUCADOR</text>
  </g>

  <!-- Descrições -->
  <g transform="translate(40, 110)">
    <rect x="0" y="0" width="200" height="100" rx="8" fill="white" stroke="#667eea" stroke-width="2"/>
    <text x="100" y="25" font-family="Arial, sans-serif" font-size="11" font-weight="bold" fill="#667eea" text-anchor="middle">FUNDAMENTAÇÃO</text>
    <text x="15" y="45" font-family="Arial, sans-serif" font-size="10" fill="#666">• Estudar teorias</text>
    <text x="15" y="60" font-family="Arial, sans-serif" font-size="10" fill="#666">• Conhecer pesquisas</text>
    <text x="15" y="75" font-family="Arial, sans-serif" font-size="10" fill="#666">• Atualização contínua</text>
    <text x="15" y="90" font-family="Arial, sans-serif" font-size="10" fill="#666">• Embasamento científico</text>
  </g>

  <g transform="translate(560, 110)">
    <rect x="0" y="0" width="200" height="100" rx="8" fill="white" stroke="#4facfe" stroke-width="2"/>
    <text x="100" y="25" font-family="Arial, sans-serif" font-size="11" font-weight="bold" fill="#4facfe" text-anchor="middle">APLICAÇÃO</text>
    <text x="15" y="45" font-family="Arial, sans-serif" font-size="10" fill="#666">• Experimentar em sala</text>
    <text x="15" y="60" font-family="Arial, sans-serif" font-size="10" fill="#666">• Adaptar ao contexto</text>
    <text x="15" y="75" font-family="Arial, sans-serif" font-size="10" fill="#666">• Testar metodologias</text>
    <text x="15" y="90" font-family="Arial, sans-serif" font-size="10" fill="#666">• Observar resultados</text>
  </g>

  <g transform="translate(300, 400)">
    <rect x="0" y="0" width="200" height="80" rx="8" fill="white" stroke="#43e97b" stroke-width="2"/>
    <text x="100" y="22" font-family="Arial, sans-serif" font-size="11" font-weight="bold" fill="#43e97b" text-anchor="middle">ANÁLISE CRÍTICA</text>
    <text x="15" y="42" font-family="Arial, sans-serif" font-size="10" fill="#666">• O que funcionou?</text>
    <text x="15" y="57" font-family="Arial, sans-serif" font-size="10" fill="#666">• O que ajustar?</text>
    <text x="15" y="72" font-family="Arial, sans-serif" font-size="10" fill="#666">• Como melhorar?</text>
  </g>

  <text x="400" y="480" font-family="Arial, sans-serif" font-size="11" fill="#999" text-anchor="middle">© 2024 Educa com Talento - Módulo 1, Aula 4</text>
</svg>
